# xmcd
#
# Track frame offsets:
#	150
#	17442
#	34725
#	53102
#	70072
#	82165
#	99525
#	117505
#	135850
#	150755
#	164622
#	179327
#	191885
#	209105
#	223537
#
# Disc length: 3223 seconds
#
# Revision: 2
# Processed by: cddbd v1.5.1PL2 Copyright (c) Steve Scherf et al.
# Submitted via: audiograbber 1.83.01
#
DISCID=d00c950f
DTITLE=Music Maestro - MM6134
DYEAR=1900
DGENRE=Karaoke
TTITLE0=Alabama - It Works
TTITLE1=Parnell, Leroy - Heart's Desire
TTITLE2=Tillis, Pam - River And The Highway
TTITLE3=4 Runner - Ripples
TTITLE4=Brooks, Garth - It's Midnight Cinderella
TTITLE5=Mavericks, The - All You Ever Do Is Bring Me Down
TTITLE6=Tritt, Travis - Only You And You Alone
TTITLE7=Shenandoah - Always Have, Always Will
TTITLE8=Bonamy, James - She's Got A Mind Of Her Own
TTITLE9=Emilio - Even If I Tried
TTITLE10=James, Brett - Worth The Fall
TTITLE11=Skaggs, Ricky - Solid Ground
TTITLE12=Smokin' Armadillos - Let Your Heart Lead Your Mind
TTITLE13=Brokop, Lisa - She Can't Save Him
TTITLE14=Crosby, Rob - Lady's Man
EXTD=As Listed In KJ Pro
EXTT0=
EXTT1=
EXTT2=
EXTT3=
EXTT4=
EXTT5=
EXTT6=
EXTT7=
EXTT8=
EXTT9=
EXTT10=
EXTT11=
EXTT12=
EXTT13=
EXTT14=
PLAYORDER=
